<svg width="32" height="32" viewBox="0 0 32 32" fill="none" xmlns="http://www.w3.org/2000/svg">
<path d="M15.999 1.66699C16.3796 1.66699 16.728 1.88331 16.8965 2.22461L20.7832 10.0996L29.4775 11.3711C29.854 11.4262 30.1668 11.6899 30.2842 12.0518C30.4016 12.4138 30.3029 12.8116 30.0303 13.0771L23.7402 19.2031L25.2246 27.8584C25.2888 28.2334 25.135 28.6123 24.8271 28.8359C24.5192 29.0597 24.1104 29.0893 23.7734 28.9121L15.999 24.8232L8.22461 28.9121C7.88777 29.0892 7.47979 29.0596 7.17188 28.8359C6.86403 28.6123 6.70931 28.2334 6.77344 27.8584L8.25684 19.2021L1.96875 13.0771C1.69613 12.8116 1.59747 12.4138 1.71484 12.0518C1.83226 11.6898 2.14497 11.4261 2.52148 11.3711L11.2148 10.0996L15.1025 2.22461C15.271 1.8834 15.6185 1.66712 15.999 1.66699Z" stroke="#DC2626" stroke-width="2" stroke-linecap="round" stroke-linejoin="round"/>
</svg>
