<svg xmlns="http://www.w3.org/2000/svg" width="9.333" height="9.333" viewBox="0 0 9.333 9.333" fill="none">
  <path d="M 3.96 10.04 C 4.35 10.431 4.983 10.431 5.374 10.04 C 5.764 9.65 5.764 9.017 5.374 8.626 L 4.667 9.333 L 3.96 10.04 Z M 0 4.667 L -0.707 3.96 C -1.098 4.35 -1.098 4.983 -0.707 5.374 L 0 4.667 Z M 5.374 0.707 C 5.764 0.317 5.764 -0.317 5.374 -0.707 C 4.983 -1.098 4.35 -1.098 3.96 -0.707 L 4.667 0 L 5.374 0.707 Z M 9.333 5.667 C 9.886 5.667 10.333 5.219 10.333 4.667 C 10.333 4.114 9.886 3.667 9.333 3.667 L 9.333 4.667 L 9.333 5.667 Z M 4.667 9.333 L 5.374 8.626 L 0.707 3.96 L 0 4.667 L -0.707 5.374 L 3.96 10.04 L 4.667 9.333 Z M 0 4.667 L 0.707 5.374 L 5.374 0.707 L 4.667 0 L 3.96 -0.707 L -0.707 3.96 L 0 4.667 Z M 9.333 4.667 L 9.333 3.667 L 0 3.667 L 0 4.667 L 0 5.667 L 9.333 5.667 L 9.333 4.667 Z" fill="currentColor" fill-rule="nonzero"/>
</svg>
