<svg xmlns="http://www.w3.org/2000/svg" width="21.154" height="17.190" viewBox="0 0 21.154 17.190" fill="none">
  <path d="M 21.154 2.022 C 20.376 2.376 19.536 2.609 18.667 2.72 C 19.556 2.184 20.244 1.335 20.568 0.313 C 19.728 0.819 18.798 1.173 17.817 1.375 C 17.018 0.506 15.896 0 14.622 0 C 12.246 0 10.304 1.941 10.304 4.338 C 10.304 4.682 10.344 5.016 10.415 5.329 C 6.815 5.147 3.61 3.418 1.476 0.799 C 1.102 1.436 0.89 2.184 0.89 2.973 C 0.89 4.48 1.648 5.814 2.821 6.573 C 2.103 6.573 1.436 6.371 0.849 6.067 L 0.849 6.097 C 0.849 8.201 2.346 9.96 4.328 10.355 C 3.692 10.529 3.023 10.554 2.376 10.425 C 2.651 11.287 3.189 12.042 3.914 12.582 C 4.64 13.123 5.517 13.422 6.421 13.439 C 4.888 14.653 2.987 15.309 1.031 15.299 C 0.688 15.299 0.344 15.279 0 15.239 C 1.921 16.472 4.207 17.19 6.654 17.19 C 14.622 17.19 19 10.577 19 4.844 C 19 4.651 19 4.469 18.99 4.277 C 19.84 3.671 20.568 2.902 21.154 2.022 Z" fill="currentColor" fill-rule="nonzero"/>
</svg>
