<svg xmlns="http://www.w3.org/2000/svg" width="14.320" height="20.047" viewBox="0 0 14.320 20.047" fill="none">
  <path d="M 6.011 16.848 L 6.511 16.866 L 6.511 16.857 L 6.511 16.848 L 6.011 16.848 Z M 6.017 1.003 L 6.017 0.503 L 5.517 0.503 L 5.517 1.003 L 6.017 1.003 Z M 8.912 1.003 L 8.912 1.503 L 9.514 1.503 L 9.403 0.911 L 8.912 1.003 Z M 8.818 0 L 9.318 -0.001 L 9.318 -0.5 L 8.818 -0.5 L 8.818 0 Z M 4.865 0 L 4.865 -0.5 L 4.365 -0.5 L 4.365 0 L 4.865 0 Z M 4.859 15.845 L 5.358 15.864 L 5.359 15.854 L 5.359 15.845 L 4.859 15.845 Z M 1.542 19.043 L 1.542 18.543 L 1.542 18.543 L 1.542 19.043 Z M 0 18.662 L 0.233 18.219 L -0.406 18.953 L 0 18.662 Z M 1.18 19.679 L 1.408 19.235 L 1.408 19.235 L 1.18 19.679 Z M 2.694 20.047 M 14.319 5.501 L 14.819 5.501 L 14.819 5 L 14.319 5.001 L 14.319 5.501 Z M 11.324 4.61 L 11.598 4.192 L 10.947 4.938 L 11.324 4.61 Z M 2.694 20.047 L 2.694 20.547 C 4.755 20.547 6.434 18.908 6.511 16.866 L 6.011 16.848 L 5.512 16.829 C 5.455 18.337 4.213 19.547 2.694 19.547 L 2.694 20.047 Z M 6.011 16.848 L 6.511 16.848 L 6.517 1.003 L 6.017 1.003 L 5.517 1.003 L 5.511 16.847 L 6.011 16.848 Z M 6.017 1.003 L 6.017 1.503 L 8.912 1.503 L 8.912 1.003 L 8.912 0.503 L 6.017 0.503 L 6.017 1.003 Z M 8.912 1.003 L 9.403 0.911 C 9.347 0.611 9.319 0.305 9.318 -0.001 L 8.818 0 L 8.318 0.001 C 8.319 0.368 8.353 0.734 8.42 1.095 L 8.912 1.003 Z M 8.818 0 L 8.818 -0.5 L 4.865 -0.5 L 4.865 0 L 4.865 0.5 L 8.818 0.5 L 8.818 0 Z M 4.865 0 L 4.365 0 L 4.359 15.845 L 4.859 15.845 L 5.359 15.845 L 5.365 0 L 4.865 0 Z M 4.859 15.845 L 4.359 15.826 C 4.303 17.334 3.061 18.543 1.542 18.543 L 1.542 19.043 L 1.542 19.543 C 3.602 19.543 5.282 17.905 5.358 15.864 L 4.859 15.845 Z M 1.542 19.043 L 1.542 18.543 C 1.086 18.543 0.637 18.432 0.233 18.219 L 0 18.662 L -0.233 19.104 C 0.314 19.393 0.923 19.543 1.542 19.543 L 1.542 19.043 Z M 0 18.662 L -0.406 18.953 C -0.053 19.445 0.412 19.847 0.951 20.124 L 1.18 19.679 L 1.408 19.235 C 1.01 19.03 0.667 18.734 0.406 18.37 L 0 18.662 Z M 1.18 19.679 L 0.951 20.124 C 1.49 20.401 2.087 20.546 2.693 20.547 L 2.694 20.047 L 2.694 19.547 C 2.247 19.546 1.806 19.439 1.408 19.235 L 1.18 19.679 Z M 2.694 20.047 M 14.319 6.381 L 14.819 6.381 L 14.819 5.501 L 14.319 5.501 L 13.819 5.501 L 13.819 6.381 L 14.319 6.381 Z M 14.319 5.501 L 14.319 5.001 C 13.352 5.001 12.407 4.72 11.598 4.192 L 11.324 4.61 L 11.051 5.029 C 12.023 5.664 13.159 6.002 14.32 6.001 L 14.319 5.501 Z M 11.324 4.61 L 10.947 4.938 C 11.798 5.919 12.945 6.596 14.215 6.87 L 14.32 6.381 L 14.425 5.892 C 13.367 5.664 12.411 5.099 11.702 4.282 L 11.324 4.61 Z" fill="currentColor" fill-rule="nonzero"/>
</svg>
